<svg width="18" height="18" viewBox="0 0 18 18" fill="none" xmlns="http://www.w3.org/2000/svg">
<path d="M17.9228 16.3117L9.54591 1.08753C9.4364 0.888494 9.22715 0.764828 9 0.764828C8.77281 0.764828 8.56365 0.888494 8.45409 1.08753L0.0771851 16.3117C-0.0290353 16.5047 -0.0253966 16.7395 0.0867056 16.9292C0.198808 17.1188 0.402725 17.2352 0.623041 17.2352H17.3769C17.5973 17.2352 17.8012 17.1188 17.9133 16.9292C18.0254 16.7395 18.029 16.5047 17.9228 16.3117ZM1.67707 15.989L9 2.68033L16.3229 15.989H1.67707Z" fill="white"/>
<path d="M8.21918 7.13212V11.6357C8.21918 12.0669 8.56879 12.4165 9 12.4165C9.43117 12.4165 9.78083 12.0669 9.78083 11.6357V7.13212C9.78083 6.70091 9.43117 6.3513 9 6.3513C8.56879 6.3513 8.21918 6.70096 8.21918 7.13212Z" fill="white"/>
<path d="M9 13.2272C8.54656 13.2272 8.17755 13.596 8.17755 14.0496C8.17755 14.5031 8.54656 14.8721 9 14.8721C9.45344 14.8721 9.82244 14.5031 9.82244 14.0496C9.82244 13.596 9.45339 13.2272 9 13.2272Z" fill="white"/>
</svg>
