<svg width="12" height="12" viewBox="0 0 12 12" fill="none" xmlns="http://www.w3.org/2000/svg">
<g clip-path="url(#clip0)">
<path d="M7.65524 4.34762C7.50001 4.34762 7.37421 4.47342 7.37421 4.62865V9.94011C7.37421 10.0952 7.50001 10.2211 7.65524 10.2211C7.81046 10.2211 7.93627 10.0952 7.93627 9.94011V4.62865C7.93627 4.47342 7.81046 4.34762 7.65524 4.34762Z" fill="#70707B"/>
<path d="M4.33908 4.34762C4.18385 4.34762 4.05804 4.47342 4.05804 4.62865V9.94011C4.05804 10.0952 4.18385 10.2211 4.33908 10.2211C4.4943 10.2211 4.62011 10.0952 4.62011 9.94011V4.62865C4.62011 4.47342 4.4943 4.34762 4.33908 4.34762Z" fill="#70707B"/>
<path d="M1.92219 3.57248V10.4965C1.92219 10.9057 2.07226 11.29 2.33441 11.5658C2.59535 11.8423 2.95849 11.9993 3.33854 12H8.6557C9.03586 11.9993 9.399 11.8423 9.65983 11.5658C9.92198 11.29 10.072 10.9057 10.072 10.4965V3.57248C10.5932 3.43416 10.9308 2.93072 10.8611 2.396C10.7913 1.86139 10.3358 1.46147 9.79661 1.46136H8.35776V1.11007C8.35941 0.814661 8.24261 0.530997 8.03348 0.322311C7.82436 0.113734 7.54025 -0.00241012 7.24484 4.97687e-06H4.74939C4.45398 -0.00241012 4.16988 0.113734 3.96075 0.322311C3.75163 0.530997 3.63482 0.814661 3.63647 1.11007V1.46136H2.19762C1.6584 1.46147 1.20293 1.86139 1.13311 2.396C1.06341 2.93072 1.40108 3.43416 1.92219 3.57248ZM8.6557 11.4379H3.33854C2.85804 11.4379 2.48425 11.0251 2.48425 10.4965V3.59718H9.50998V10.4965C9.50998 11.0251 9.13619 11.4379 8.6557 11.4379ZM4.19853 1.11007C4.19666 0.963738 4.25419 0.822894 4.35804 0.719594C4.46178 0.616294 4.60295 0.559539 4.74939 0.562064H7.24484C7.39129 0.559539 7.53246 0.616294 7.6362 0.719594C7.74005 0.822784 7.79757 0.963738 7.7957 1.11007V1.46136H4.19853V1.11007ZM2.19762 2.02342H9.79661C10.076 2.02342 10.3025 2.24989 10.3025 2.52927C10.3025 2.80865 10.076 3.03512 9.79661 3.03512H2.19762C1.91824 3.03512 1.69177 2.80865 1.69177 2.52927C1.69177 2.24989 1.91824 2.02342 2.19762 2.02342Z" fill="#70707B"/>
<path d="M5.99716 4.34762C5.84193 4.34762 5.71613 4.47342 5.71613 4.62865V9.94011C5.71613 10.0952 5.84193 10.2211 5.99716 10.2211C6.15238 10.2211 6.27819 10.0952 6.27819 9.94011V4.62865C6.27819 4.47342 6.15238 4.34762 5.99716 4.34762Z" fill="#70707B"/>
</g>
<defs>
<clipPath id="clip0">
<rect width="12" height="12" fill="white"/>
</clipPath>
</defs>
</svg>
