<svg width="10" height="12" viewBox="0 0 10 12" fill="none" xmlns="http://www.w3.org/2000/svg">
<path d="M6.72269 2.09871H1.14415C0.620705 2.09871 0.195557 2.52386 0.195557 3.04731V11.0514C0.195557 11.5749 0.620705 12 1.14415 12H6.72269C7.24614 12 7.67129 11.5749 7.67129 11.0514V3.04731C7.66883 2.52386 7.24368 2.09871 6.72269 2.09871ZM7.00531 11.0489C7.00531 11.2062 6.87752 11.334 6.72024 11.334H1.1417C0.984416 11.334 0.856626 11.2062 0.856626 11.0489V3.04731C0.856626 2.89003 0.984416 2.76224 1.1417 2.76224H6.72024C6.87752 2.76224 7.00531 2.89003 7.00531 3.04731V11.0489Z" fill="#70707B"/>
<path d="M8.85581 0H3.27727C2.75382 0 2.32867 0.425148 2.32867 0.948597C2.32867 1.13291 2.47612 1.28036 2.66044 1.28036C2.84475 1.28036 2.9922 1.13291 2.9922 0.948597C2.9922 0.791317 3.11999 0.663526 3.27727 0.663526H8.85581C9.01309 0.663526 9.14088 0.791317 9.14088 0.948597V8.95269C9.14088 9.10997 9.01309 9.23776 8.85581 9.23776C8.6715 9.23776 8.52405 9.38521 8.52405 9.56953C8.52405 9.75384 8.6715 9.90129 8.85581 9.90129C9.37926 9.90129 9.80441 9.47614 9.80441 8.95269V0.948597C9.80441 0.425148 9.37926 0 8.85581 0Z" fill="#70707B"/>
</svg>
