<svg width="12" height="12" viewBox="0 0 12 12" fill="none" xmlns="http://www.w3.org/2000/svg">
<path d="M11.6265 1.46025L10.5391 0.372754C10.0423 -0.124096 9.23392 -0.124073 8.73707 0.372754C8.26928 0.840589 1.12422 7.98618 0.646723 8.46369C0.595864 8.51455 0.561786 8.58214 0.549645 8.64826L0.00594186 11.5845C-0.0151285 11.6983 0.0211528 11.8153 0.10302 11.8971C0.184981 11.9791 0.301934 12.0153 0.41563 11.9942L3.35162 11.4505C3.41947 11.4378 3.48618 11.4034 3.53619 11.3534L11.6265 3.26243C12.1245 2.76443 12.1246 1.95832 11.6265 1.46025ZM0.790395 11.2097L1.11929 9.43351L2.56647 10.8808L0.790395 11.2097ZM3.28762 10.6076L1.39248 8.71232L8.31147 1.79281L10.2066 3.68808L3.28762 10.6076ZM11.1294 2.76525L10.7038 3.1909L8.80863 1.29563L9.23423 0.86998C9.45691 0.647277 9.81923 0.647254 10.042 0.86998L11.1294 1.95748C11.3526 2.18072 11.3526 2.54198 11.1294 2.76525Z" fill="#70707B"/>
</svg>
